<?xml version="1.0" encoding="UTF-8" standalone="no"?>
<svg
   xmlns:dc="http://purl.org/dc/elements/1.1/"
   xmlns:cc="http://creativecommons.org/ns#"
   xmlns:rdf="http://www.w3.org/1999/02/22-rdf-syntax-ns#"
   xmlns:svg="http://www.w3.org/2000/svg"
   xmlns="http://www.w3.org/2000/svg"
   xmlns:sodipodi="http://sodipodi.sourceforge.net/DTD/sodipodi-0.dtd"
   xmlns:inkscape="http://www.inkscape.org/namespaces/inkscape"
   id="svg"
   version="1.1"
   width="400"
   height="400"
   viewBox="0, 0, 400,400"
   inkscape:version="0.91 r13725"
   sodipodi:docname="byrokrat.svg"
   inkscape:export-filename="/home/hannes/Hämtningar/byrokrat.svg.png"
   inkscape:export-xdpi="90"
   inkscape:export-ydpi="90">
  <metadata
     id="metadata9">
    <rdf:RDF>
      <cc:Work
         rdf:about="">
        <dc:format>image/svg+xml</dc:format>
        <dc:type
           rdf:resource="http://purl.org/dc/dcmitype/StillImage" />
        <dc:title />
      </cc:Work>
    </rdf:RDF>
  </metadata>
  <defs
     id="defs7" />
  <sodipodi:namedview
     pagecolor="#ffffff"
     bordercolor="#666666"
     borderopacity="1"
     objecttolerance="10"
     gridtolerance="10"
     guidetolerance="10"
     inkscape:pageopacity="0"
     inkscape:pageshadow="2"
     inkscape:window-width="1528"
     inkscape:window-height="948"
     id="namedview5"
     showgrid="false"
     inkscape:zoom="1.668772"
     inkscape:cx="205.78681"
     inkscape:cy="200"
     inkscape:window-x="26"
     inkscape:window-y="48"
     inkscape:window-maximized="0"
     inkscape:current-layer="svg" />
  <g
     id="svgg">
    <path
       id="path0"
       d="m 184.956,25.966 c -38.033,8.96 -56.859,38.723 -49.455,78.187 2.506,13.361 7.321,12.987 7.489,-0.582 0.409,-32.88 17.977,-51.726 41.728,-44.764 14.37,4.213 20.197,3.845 55.742,-3.52 12.539,-2.598 18.256,9.383 17.481,36.634 -0.798,28.086 6.674,37.341 18.836,23.33 9.463,-10.902 2.546,-63.822 -8.342,-63.822 -1.305,0 -8.177,-5.024 -15.271,-11.164 C 235.247,24.759 211.347,19.748 184.956,25.966 m 71.009,201.194 c -5.634,8.6 -7.422,13.008 -23.173,57.126 -21.4,59.941 -41.26,107.143 -45.081,107.143 -0.427,0 0.147,-10.608 1.277,-23.572 1.129,-12.964 2.347,-33.191 2.705,-44.948 0.395,-12.923 2.122,-22.846 4.368,-25.092 6.837,-6.837 8.271,-23.958 2.368,-28.274 -7.016,-5.131 -11.702,-4.822 -17.811,1.171 -2.803,2.75 -9.553,6.606 -15,8.569 l -9.904,3.569 8.572,-7.292 c 5.715,-4.861 6.53,-6.309 2.446,-4.344 -6.283,3.022 -7.612,-14.939 -2.337,-31.561 2.231,-7.028 -2.72371,-5.61229 -8.681,0.345 -29.048,12.16344 -62.731385,15.15182 -86.452458,26.81697 C 19.342559,293.85452 15.06527,346.08894 0,394.286 0,399.946 1.905,400 200,400 l 200,0 -0.031,-9.286 C 399.918,375.053 394.16397,305.44924 389.75586,295 370.76046,253.30677 304.6442,251.80427 272.438,226.429 c -8.885,-8.139 -10.713,-8.058 -16.473,0.731 m -208.108,50.34 0,0 m 125.596,13.214 c -0.815,4.322 -3.681,13.643 -6.37,20.715 -2.688,7.071 -7.212,20.571 -10.053,30 -4.772,15.84 -5.181,16.36 -5.383,6.847 -0.349,-16.451 3.247,-45.38 5.471,-44.006 1.118,0.691 3.562,-3.844 5.43,-10.078 4.038,-13.48 13.351,-16.45 10.905,-3.478"
       inkscape:connector-curvature="0"
       style="fill:#000000;fill-rule:evenodd;stroke:none"
       sodipodi:nodetypes="ccccsccscccssccsccccccccccscccccccccccccc"
       inkscape:export-xdpi="90"
       inkscape:export-ydpi="90" />
  </g>
</svg>
